<svg width="18" height="18" viewBox="0 0 18 18" fill="none" xmlns="http://www.w3.org/2000/svg">
<path d="M12.8213 11H12.0321L11.7523 10.73C12.7314 9.59 13.3208 8.11 13.3208 6.5C13.3208 2.91 10.4137 0 6.82715 0C3.24066 0 0.333496 2.91 0.333496 6.5C0.333496 10.09 3.24066 13 6.82715 13C8.43558 13 9.91414 12.41 11.053 11.43L11.3228 11.71V12.5L16.3179 17.49L17.8064 16L12.8213 11ZM6.82715 11C4.33958 11 2.33154 8.99 2.33154 6.5C2.33154 4.01 4.33958 2 6.82715 2C9.31472 2 11.3228 4.01 11.3228 6.5C11.3228 8.99 9.31472 11 6.82715 11Z" fill="#A8B8CA"/>
</svg>
