<svg width="20" height="18" viewBox="0 0 20 18" fill="none" xmlns="http://www.w3.org/2000/svg">
<path d="M14.8098 18L16.9076 18L16.9076 12L14.8098 12L14.8098 18ZM2.22283 18L4.32065 18L4.32065 8L2.22283 8L2.22283 18ZM19.0054 8L16.9076 8L16.9076 -6.99382e-07L14.8098 -6.11959e-07L14.8098 8L12.712 8L12.712 10L19.0054 10L19.0054 8ZM6.41848 14L8.5163 14L8.5163 18L10.6141 18L10.6141 14L12.712 14L12.712 12L6.41848 12L6.41848 14ZM10.6141 -4.37114e-07L8.5163 -3.49691e-07L8.5163 10L10.6141 10L10.6141 -4.37114e-07ZM6.41848 6L6.41848 4L4.32065 4L4.32065 -1.74846e-07L2.22283 -8.74228e-08L2.22283 4L0.124999 4L0.124999 6L6.41848 6Z" fill="#037BFF"/>
</svg>
